<?xml version="1.0" encoding="utf-8"?>
<!-- Generator: Adobe Illustrator 25.2.0, SVG Export Plug-In . SVG Version: 6.00 Build 0)  -->
<svg version="1.1" id="Layer_1" xmlns="http://www.w3.org/2000/svg" xmlns:xlink="http://www.w3.org/1999/xlink" x="0px" y="0px"
	 viewBox="0 0 465 194" style="enable-background:new 0 0 465 194;" xml:space="preserve">
<style type="text/css">
	.st0{fill:#010101;}
</style>
<path class="st0" d="M232.5,0C104.09,0,0,43.43,0,97s104.09,97,232.5,97S465,150.57,465,97S360.91,0,232.5,0z M235.7,142.19h-21.38
	V78.95c0-2.69,0.38-4.99,0.9-8.45c-0.9,2.69-1.28,3.71-2.56,6.91l-27.01,64.77h-20.61l-27.01-63.49c-1.41-3.46-1.66-4.48-2.69-8.19
	c0.38,3.84,0.51,4.61,0.77,8.06v63.62h-21.38V51.81h32.64l23.55,55.3c2.43,5.89,3.33,8.32,4.61,13.44c0.9-3.84,1.66-6.14,4.22-12.42
	l23.55-56.32h32.39V142.19z M350.26,68.33h-33.54v73.86h-22.66V68.33h-33.54V51.81h89.73V68.33z"/>
</svg>
